<svg width="16" height="16" viewBox="0 0 16 16" fill="none" xmlns="http://www.w3.org/2000/svg">
<path d="M8 2.5C4.9625 2.5 2.5 4.9625 2.5 8C2.5 11.0375 4.9625 13.5 8 13.5C11.0375 13.5 13.5 11.0375 13.5 8C13.5 4.9625 11.0375 2.5 8 2.5ZM8 3.5C10.4852 3.5 12.5 5.51475 12.5 8C12.5 10.4852 10.4852 12.5 8 12.5C5.51475 12.5 3.5 10.4852 3.5 8C3.5 5.51475 5.51475 3.5 8 3.5ZM8 4C7.724 4 7.5 4.22375 7.5 4.5V7.5H5C4.72375 7.5 4.5 7.724 4.5 8C4.5 8.276 4.72375 8.5 5 8.5H8C8.276 8.5 8.5 8.27625 8.5 8V4.5C8.5 4.22375 8.276 4 8 4Z" fill="#666666"/>
</svg>
