<svg width="22" height="19" viewBox="0 0 22 19" fill="none" xmlns="http://www.w3.org/2000/svg">
<path d="M2.97723 1H18.7951C19.8826 1 20.7723 1.9168 20.7723 3.03734V15.2614C20.7723 16.382 19.8826 17.2988 18.7951 17.2988H2.97723C1.88975 17.2988 1 16.382 1 15.2614V3.03734C1 1.9168 1.88975 1 2.97723 1Z" stroke="white" stroke-width="2" stroke-linecap="round" stroke-linejoin="round"/>
<path d="M20.7723 2.35828L10.8862 10.5077L1 2.35828" stroke="white" stroke-width="2" stroke-linecap="round" stroke-linejoin="round"/>
<path d="M2.97723 1H18.7951C19.8826 1 20.7723 1.9168 20.7723 3.03734V15.2614C20.7723 16.382 19.8826 17.2988 18.7951 17.2988H2.97723C1.88975 17.2988 1 16.382 1 15.2614V3.03734C1 1.9168 1.88975 1 2.97723 1Z" stroke="white" stroke-width="2" stroke-linecap="round" stroke-linejoin="round"/>
<path d="M20.7723 2.35828L10.8862 10.5077L1 2.35828" stroke="white" stroke-width="2" stroke-linecap="round" stroke-linejoin="round"/>
</svg>
